<svg width="72" height="99" viewBox="0 0 72 99" fill="none" xmlns="http://www.w3.org/2000/svg">
<rect width="72" height="99" fill="#032644"/>
<g id="Section 1">
<path d="M-1856 -2412C-1856 -2413.1 -1855.1 -2414 -1854 -2414H1327C1328.1 -2414 1329 -2413.1 1329 -2412V5750C1329 5751.1 1328.1 5752 1327 5752H-1854C-1855.1 5752 -1856 5751.1 -1856 5750V-2412Z" fill="white"/>
<path d="M-1854 -2414V-2413H1327V-2414V-2415H-1854V-2414ZM1329 -2412H1328V5750H1329H1330V-2412H1329ZM1327 5752V5751H-1854V5752V5753H1327V5752ZM-1856 5750H-1855V-2412H-1856H-1857V5750H-1856ZM-1854 5752V5751C-1854.55 5751 -1855 5750.55 -1855 5750H-1856H-1857C-1857 5751.66 -1855.66 5753 -1854 5753V5752ZM1329 5750H1328C1328 5750.55 1327.55 5751 1327 5751V5752V5753C1328.66 5753 1330 5751.66 1330 5750H1329ZM1327 -2414V-2413C1327.55 -2413 1328 -2412.55 1328 -2412H1329H1330C1330 -2413.66 1328.66 -2415 1327 -2415V-2414ZM-1854 -2414V-2415C-1855.66 -2415 -1857 -2413.66 -1857 -2412H-1856H-1855C-1855 -2412.55 -1854.55 -2413 -1854 -2413V-2414Z" fill="black" fill-opacity="0.1"/>
<g id="Arthur">
<rect width="1440" height="900" transform="translate(-211 -282)" fill="#032644"/>
<g id="Group 18">
<path id="Vector" d="M15.158 78.3748C15.158 77.5542 15.474 76.7673 16.0366 76.1871C16.5992 75.607 17.3623 75.281 18.158 75.281H36.158C36.9536 75.281 37.7167 75.607 38.2793 76.1871C38.8419 76.7673 39.158 77.5542 39.158 78.3748C39.158 79.1953 38.8419 79.9822 38.2793 80.5624C37.7167 81.1426 36.9536 81.4685 36.158 81.4685H18.158C17.3623 81.4685 16.5992 81.1426 16.0366 80.5624C15.474 79.9822 15.158 79.1953 15.158 78.3748ZM15.158 65.9998C15.158 65.1792 15.474 64.3923 16.0366 63.8121C16.5992 63.232 17.3623 62.906 18.158 62.906H54.158C54.9536 62.906 55.7167 63.232 56.2793 63.8121C56.8419 64.3923 57.158 65.1792 57.158 65.9998C57.158 66.8203 56.8419 67.6072 56.2793 68.1874C55.7167 68.7676 54.9536 69.0935 54.158 69.0935H18.158C17.3623 69.0935 16.5992 68.7676 16.0366 68.1874C15.474 67.6072 15.158 66.8203 15.158 65.9998ZM24.992 43.0565L32.972 48.5386L44.096 37.0608C44.3186 36.8305 44.6061 36.6784 44.9174 36.6262C45.2287 36.574 45.548 36.6243 45.83 36.77L57.158 42.7966V53.6248C57.158 54.4453 56.8419 55.2322 56.2793 55.8124C55.7167 56.3926 54.9536 56.7185 54.158 56.7185H18.158C17.3623 56.7185 16.5992 56.3926 16.0366 55.8124C15.474 55.2322 15.158 54.4453 15.158 53.6248V50.531C15.158 50.531 24.398 42.6481 24.992 43.0565ZM25.658 38.156C26.8514 38.156 27.996 37.6671 28.8399 36.7968C29.6839 35.9265 30.158 34.7462 30.158 33.5154C30.158 32.2846 29.6839 31.1042 28.8399 30.234C27.996 29.3637 26.8514 28.8748 25.658 28.8748C24.4645 28.8748 23.3199 29.3637 22.476 30.234C21.6321 31.1042 21.158 32.2846 21.158 33.5154C21.158 34.7462 21.6321 35.9265 22.476 36.7968C23.3199 37.6671 24.4645 38.156 25.658 38.156Z" fill="url(#paint0_linear_0_1)"/>
<path id="Vector_2" d="M72 27.8438V86.625C72 89.9071 70.7357 93.0547 68.4853 95.3754C66.2348 97.6962 63.1826 99 60 99H12C8.8174 99 5.76515 97.6962 3.51472 95.3754C1.26428 93.0547 0 89.9071 0 86.625V12.375C0 9.09295 1.26428 5.94532 3.51472 3.62455C5.76515 1.30379 8.8174 0 12 0L45 0L72 27.8438ZM54 27.8438C51.6131 27.8438 49.3239 26.8659 47.636 25.1253C45.9482 23.3848 45 21.024 45 18.5625V6.1875H12C10.4087 6.1875 8.88258 6.8394 7.75736 7.99978C6.63214 9.16016 6 10.734 6 12.375V86.625C6 88.266 6.63214 89.8398 7.75736 91.0002C8.88258 92.1606 10.4087 92.8125 12 92.8125H60C61.5913 92.8125 63.1174 92.1606 64.2426 91.0002C65.3679 89.8398 66 88.266 66 86.625V27.8438H54Z" fill="url(#paint1_linear_0_1)"/>
</g>
</g>
</g>
<defs>
<linearGradient id="paint0_linear_0_1" x1="36.158" y1="28.8748" x2="36.158" y2="81.4685" gradientUnits="userSpaceOnUse">
<stop stop-color="#F7C76A"/>
<stop offset="0.932692" stop-color="#A06F0E"/>
</linearGradient>
<linearGradient id="paint1_linear_0_1" x1="36" y1="0" x2="36" y2="99" gradientUnits="userSpaceOnUse">
<stop stop-color="#F7C76A"/>
<stop offset="0.932692" stop-color="#8B6914"/>
</linearGradient>
</defs>
</svg>
