<svg width="73" height="64" viewBox="0 0 73 64" fill="none" xmlns="http://www.w3.org/2000/svg">
  <path
    d="M35.77 16.4C35.8367 16.2801 35.9405 16.1789 36.0696 16.1082C36.1986 16.0375 36.3478 16 36.5 16C36.6522 16 36.8014 16.0375 36.9304 16.1082C37.0595 16.1789 37.1633 16.2801 37.23 16.4L40.1226 21.54C40.1812 21.6436 40.2673 21.7333 40.3737 21.8015C40.4801 21.8697 40.6037 21.9145 40.734 21.932L47.2127 22.756C47.8743 22.84 48.1435 23.556 47.6599 23.968L42.9788 27.972C42.8849 28.0532 42.8148 28.1531 42.7743 28.2631C42.7338 28.3731 42.7241 28.49 42.7461 28.604L43.8502 34.26C43.875 34.3906 43.8578 34.5247 43.8004 34.6472C43.7431 34.7697 43.648 34.8757 43.5257 34.9534C43.4034 35.0311 43.2589 35.0774 43.1082 35.087C42.9576 35.0967 42.8069 35.0693 42.6731 35.008L36.8787 32.336C36.7623 32.2834 36.6332 32.2559 36.5023 32.2559C36.3713 32.2559 36.2423 32.2834 36.1259 32.336L30.3315 35.008C30.1978 35.0682 30.0476 35.0947 29.8978 35.0845C29.7479 35.0744 29.6042 35.0279 29.4826 34.9504C29.3611 34.8728 29.2665 34.7672 29.2093 34.6454C29.1522 34.5235 29.1347 34.3901 29.1589 34.26L30.2631 28.604C30.2856 28.4903 30.2766 28.3736 30.2369 28.2636C30.1972 28.1536 30.1279 28.0536 30.0349 27.972L25.3356 23.968C25.2279 23.8753 25.1518 23.7582 25.1159 23.6298C25.0799 23.5014 25.0854 23.3667 25.1318 23.2408C25.1782 23.115 25.2637 23.003 25.3787 22.9173C25.4936 22.8317 25.6335 22.7758 25.7827 22.756L32.2614 21.932C32.3918 21.9145 32.5153 21.8697 32.6218 21.8015C32.7282 21.7333 32.8143 21.6436 32.8728 21.54L35.77 16.4Z"
    fill="#F7C76A"
  />
  <path
    d="M9.125 8C9.125 5.87827 10.0864 3.84344 11.7977 2.34315C13.5089 0.842855 15.8299 0 18.25 0L54.75 0C57.1701 0 59.4911 0.842855 61.2023 2.34315C62.9136 3.84344 63.875 5.87827 63.875 8V62C63.8748 62.3618 63.7627 62.7167 63.5505 63.027C63.3384 63.3373 63.0343 63.5914 62.6705 63.7622C62.3067 63.9329 61.8969 64.014 61.4847 63.9967C61.0726 63.9794 60.6735 63.8644 60.3299 63.664L36.5 52.404L12.6701 63.664C12.3265 63.8644 11.9274 63.9794 11.5153 63.9967C11.1031 64.014 10.6933 63.9329 10.3295 63.7622C9.96571 63.5914 9.66157 63.3373 9.44946 63.027C9.23735 62.7167 9.12521 62.3618 9.125 62V8ZM18.25 4C17.0399 4 15.8795 4.42143 15.0238 5.17157C14.1682 5.92172 13.6875 6.93913 13.6875 8V58.264L35.2362 48.336C35.6106 48.1176 36.0503 48.001 36.5 48.001C36.9497 48.001 37.3894 48.1176 37.7638 48.336L59.3125 58.264V8C59.3125 6.93913 58.8318 5.92172 57.9762 5.17157C57.1205 4.42143 55.96 4 54.75 4H18.25Z"
    fill="#F7C76A"
  />
</svg>
