<svg width="112" height="103" viewBox="0 0 112 103" fill="none" xmlns="http://www.w3.org/2000/svg">
<rect width="112" height="103" fill="#032644"/>
<g id="Section 1">
<path d="M-2331 -2415C-2331 -2416.1 -2330.1 -2417 -2329 -2417H852C853.104 -2417 854 -2416.1 854 -2415V5747C854 5748.1 853.104 5749 852 5749H-2329C-2330.1 5749 -2331 5748.1 -2331 5747V-2415Z" fill="white"/>
<path d="M-2329 -2417V-2416H852V-2417V-2418H-2329V-2417ZM854 -2415H853V5747H854H855V-2415H854ZM852 5749V5748H-2329V5749V5750H852V5749ZM-2331 5747H-2330V-2415H-2331H-2332V5747H-2331ZM-2329 5749V5748C-2329.55 5748 -2330 5747.55 -2330 5747H-2331H-2332C-2332 5748.66 -2330.66 5750 -2329 5750V5749ZM854 5747H853C853 5747.55 852.552 5748 852 5748V5749V5750C853.657 5750 855 5748.66 855 5747H854ZM852 -2417V-2416C852.552 -2416 853 -2415.55 853 -2415H854H855C855 -2416.66 853.657 -2418 852 -2418V-2417ZM-2329 -2417V-2418C-2330.66 -2418 -2332 -2416.66 -2332 -2415H-2331H-2330C-2330 -2415.55 -2329.55 -2416 -2329 -2416V-2417Z" fill="black" fill-opacity="0.1"/>
<g id="Arthur">
<rect width="1440" height="900" transform="translate(-686 -285)" fill="#032644"/>
<g id="person-vcard 1" clip-path="url(#clip0_0_1)">
<g id="Vector" filter="url(#filter0_d_0_1)">
<path d="M35 51.5C38.713 51.5 42.274 50.1435 44.8995 47.729C47.525 45.3145 49 42.0397 49 38.625C49 35.2103 47.525 31.9355 44.8995 29.521C42.274 27.1065 38.713 25.75 35 25.75C31.287 25.75 27.726 27.1065 25.1005 29.521C22.475 31.9355 21 35.2103 21 38.625C21 42.0397 22.475 45.3145 25.1005 47.729C27.726 50.1435 31.287 51.5 35 51.5ZM63 35.4062C63 34.5526 63.3687 33.7339 64.0251 33.1303C64.6815 32.5266 65.5717 32.1875 66.5 32.1875H94.5C95.4283 32.1875 96.3185 32.5266 96.9749 33.1303C97.6313 33.7339 98 34.5526 98 35.4062C98 36.2599 97.6313 37.0786 96.9749 37.6822C96.3185 38.2859 95.4283 38.625 94.5 38.625H66.5C65.5717 38.625 64.6815 38.2859 64.0251 37.6822C63.3687 37.0786 63 36.2599 63 35.4062ZM63 51.5C63 50.6463 63.3687 49.8276 64.0251 49.224C64.6815 48.6204 65.5717 48.2812 66.5 48.2812H94.5C95.4283 48.2812 96.3185 48.6204 96.9749 49.224C97.6313 49.8276 98 50.6463 98 51.5C98 52.3537 97.6313 53.1724 96.9749 53.776C96.3185 54.3796 95.4283 54.7188 94.5 54.7188H66.5C65.5717 54.7188 64.6815 54.3796 64.0251 53.776C63.3687 53.1724 63 52.3537 63 51.5ZM70 67.5938C70 66.7401 70.3687 65.9214 71.0251 65.3177C71.6815 64.7141 72.5717 64.375 73.5 64.375H94.5C95.4283 64.375 96.3185 64.7141 96.9749 65.3177C97.6313 65.9214 98 66.7401 98 67.5938C98 68.4474 97.6313 69.2661 96.9749 69.8698C96.3185 70.4734 95.4283 70.8125 94.5 70.8125H73.5C72.5717 70.8125 71.6815 70.4734 71.0251 69.8698C70.3687 69.2661 70 68.4474 70 67.5938Z" fill="url(#paint0_linear_0_1)"/>
<path d="M73.5 64.875H94.5C95.3085 64.875 96.0767 65.1705 96.6367 65.6855C97.1953 66.1993 97.5 66.8869 97.5 67.5938C97.5 68.3006 97.1953 68.9882 96.6367 69.502C96.0767 70.017 95.3085 70.3125 94.5 70.3125H73.5C72.6915 70.3125 71.9233 70.017 71.3633 69.502C70.8047 68.9882 70.5 68.3006 70.5 67.5938C70.5 66.8869 70.8047 66.1993 71.3633 65.6855C71.9233 65.1705 72.6915 64.875 73.5 64.875ZM66.5 48.7812H94.5C95.3085 48.7812 96.0767 49.0768 96.6367 49.5918C97.1953 50.1055 97.5 50.7931 97.5 51.5C97.5 52.2069 97.1953 52.8945 96.6367 53.4082C96.0767 53.9232 95.3085 54.2188 94.5 54.2188H66.5C65.6915 54.2188 64.9233 53.9232 64.3633 53.4082C63.8047 52.8945 63.5 52.2069 63.5 51.5C63.5 50.7931 63.8047 50.1055 64.3633 49.5918C64.9233 49.0768 65.6915 48.7812 66.5 48.7812ZM35 26.25C38.5933 26.25 42.0324 27.5628 44.5615 29.8887C47.0892 32.2133 48.5 35.3571 48.5 38.625C48.5 41.8929 47.0892 45.0367 44.5615 47.3613C42.0324 49.6872 38.5933 51 35 51C31.4067 51 27.9676 49.6872 25.4385 47.3613C22.9108 45.0367 21.5 41.8929 21.5 38.625C21.5 35.3571 22.9108 32.2133 25.4385 29.8887C27.8887 27.6353 31.193 26.333 34.6641 26.2539L35 26.25ZM66.5 32.6875H94.5C95.3085 32.6875 96.0767 32.983 96.6367 33.498C97.1953 34.0118 97.5 34.6994 97.5 35.4062C97.5 36.1131 97.1953 36.8007 96.6367 37.3145C96.0767 37.8295 95.3085 38.125 94.5 38.125H66.5C65.6915 38.125 64.9233 37.8295 64.3633 37.3145C63.8047 36.8007 63.5 36.1131 63.5 35.4062C63.5 34.6994 63.8047 34.0118 64.3633 33.498C64.9233 32.983 65.6915 32.6875 66.5 32.6875Z" stroke="black"/>
</g>
<g id="Vector_2" filter="url(#filter1_d_0_1)">
<path d="M14 12.875C10.287 12.875 6.72601 14.2315 4.10051 16.646C1.475 19.0605 0 22.3353 0 25.75L0 77.25C0 80.6647 1.475 83.9395 4.10051 86.354C6.72601 88.7685 10.287 90.125 14 90.125H98C101.713 90.125 105.274 88.7685 107.899 86.354C110.525 83.9395 112 80.6647 112 77.25V25.75C112 22.3353 110.525 19.0605 107.899 16.646C105.274 14.2315 101.713 12.875 98 12.875H14ZM7 25.75C7 24.0427 7.7375 22.4053 9.05025 21.198C10.363 19.9907 12.1435 19.3125 14 19.3125H98C99.8565 19.3125 101.637 19.9907 102.95 21.198C104.262 22.4053 105 24.0427 105 25.75V77.25C105 78.9573 104.262 80.5947 102.95 81.802C101.637 83.0093 99.8565 83.6875 98 83.6875H62.72C62.9067 82.636 63 81.5631 63 80.4688C63 68.0251 50.47 57.9375 35 57.9375C20.398 57.9375 8.4 66.9371 7.112 78.4152C7.03629 78.0307 6.99881 77.6407 7 77.25V25.75Z" fill="url(#paint1_linear_0_1)"/>
<path d="M14 13.375H98C101.593 13.375 105.031 14.688 107.561 17.0137C110.088 19.3383 111.5 22.4821 111.5 25.75V77.25C111.5 80.5179 110.088 83.6617 107.561 85.9863C105.031 88.312 101.593 89.625 98 89.625H14C10.4067 89.625 6.96762 88.3122 4.43848 85.9863C1.91079 83.6617 0.5 80.5179 0.5 77.25V25.75C0.5 22.4821 1.91079 19.3383 4.43848 17.0137C6.96762 14.6878 10.4067 13.375 14 13.375ZM14 18.8125C12.0238 18.8125 10.121 19.5342 8.71191 20.8301C7.30139 22.1273 6.5 23.8959 6.5 25.75V77.248C6.49871 77.6718 6.53906 78.0951 6.62109 78.5117L7.6084 78.4707C8.85933 67.324 20.5652 58.4375 35 58.4375C50.3007 58.4375 62.5 68.3971 62.5 80.4688C62.5 81.5345 62.409 82.5787 62.2275 83.6006L62.123 84.1875H98C99.9762 84.1875 101.879 83.4658 103.288 82.1699C104.699 80.8727 105.5 79.1041 105.5 77.25V25.75C105.5 23.8959 104.699 22.1273 103.288 20.8301C101.879 19.5342 99.9762 18.8125 98 18.8125H14Z" stroke="black"/>
</g>
</g>
</g>
</g>
<defs>
<filter id="filter0_d_0_1" x="17" y="25.75" width="85" height="53.0625" filterUnits="userSpaceOnUse" color-interpolation-filters="sRGB">
<feFlood flood-opacity="0" result="BackgroundImageFix"/>
<feColorMatrix in="SourceAlpha" type="matrix" values="0 0 0 0 0 0 0 0 0 0 0 0 0 0 0 0 0 0 127 0" result="hardAlpha"/>
<feOffset dy="4"/>
<feGaussianBlur stdDeviation="2"/>
<feComposite in2="hardAlpha" operator="out"/>
<feColorMatrix type="matrix" values="0 0 0 0 0 0 0 0 0 0 0 0 0 0 0 0 0 0 0.25 0"/>
<feBlend mode="normal" in2="BackgroundImageFix" result="effect1_dropShadow_0_1"/>
<feBlend mode="normal" in="SourceGraphic" in2="effect1_dropShadow_0_1" result="shape"/>
</filter>
<filter id="filter1_d_0_1" x="-4" y="12.875" width="120" height="85.25" filterUnits="userSpaceOnUse" color-interpolation-filters="sRGB">
<feFlood flood-opacity="0" result="BackgroundImageFix"/>
<feColorMatrix in="SourceAlpha" type="matrix" values="0 0 0 0 0 0 0 0 0 0 0 0 0 0 0 0 0 0 127 0" result="hardAlpha"/>
<feOffset dy="4"/>
<feGaussianBlur stdDeviation="2"/>
<feComposite in2="hardAlpha" operator="out"/>
<feColorMatrix type="matrix" values="0 0 0 0 0 0 0 0 0 0 0 0 0 0 0 0 0 0 0.25 0"/>
<feBlend mode="normal" in2="BackgroundImageFix" result="effect1_dropShadow_0_1"/>
<feBlend mode="normal" in="SourceGraphic" in2="effect1_dropShadow_0_1" result="shape"/>
</filter>
<linearGradient id="paint0_linear_0_1" x1="59.5" y1="25.75" x2="59.5" y2="70.8125" gradientUnits="userSpaceOnUse">
<stop stop-color="#F7C76A"/>
<stop offset="1" stop-color="#8C703B"/>
</linearGradient>
<linearGradient id="paint1_linear_0_1" x1="56" y1="12.875" x2="56" y2="90.125" gradientUnits="userSpaceOnUse">
<stop stop-color="#F7C76A"/>
<stop offset="1" stop-color="#8C703B"/>
</linearGradient>
<clipPath id="clip0_0_1">
<rect width="112" height="103" fill="white"/>
</clipPath>
</defs>
</svg>
