<svg width="99" height="93" viewBox="0 0 99 93" fill="none" xmlns="http://www.w3.org/2000/svg">
<rect width="99" height="93" fill="#032644"/>
<g id="Section 1">
<path d="M-2569 -2426C-2569 -2427.1 -2568.1 -2428 -2567 -2428H614C615.104 -2428 616 -2427.1 616 -2426V5736C616 5737.1 615.104 5738 614 5738H-2567C-2568.1 5738 -2569 5737.1 -2569 5736V-2426Z" fill="white"/>
<path d="M-2567 -2428V-2427H614V-2428V-2429H-2567V-2428ZM616 -2426H615V5736H616H617V-2426H616ZM614 5738V5737H-2567V5738V5739H614V5738ZM-2569 5736H-2568V-2426H-2569H-2570V5736H-2569ZM-2567 5738V5737C-2567.55 5737 -2568 5736.55 -2568 5736H-2569H-2570C-2570 5737.66 -2568.66 5739 -2567 5739V5738ZM616 5736H615C615 5736.55 614.552 5737 614 5737V5738V5739C615.657 5739 617 5737.66 617 5736H616ZM614 -2428V-2427C614.552 -2427 615 -2426.55 615 -2426H616H617C617 -2427.66 615.657 -2429 614 -2429V-2428ZM-2567 -2428V-2429C-2568.66 -2429 -2570 -2427.66 -2570 -2426H-2569H-2568C-2568 -2426.55 -2567.55 -2427 -2567 -2427V-2428Z" fill="black" fill-opacity="0.1"/>
<g id="Arthur">
<rect width="1440" height="900" transform="translate(-924 -296)" fill="#032644"/>
<g id="file-text 1">
<path id="Vector" d="M30.9375 23.25C30.117 23.25 29.3301 23.5562 28.7499 24.1012C28.1697 24.6462 27.8438 25.3855 27.8438 26.1562C27.8438 26.927 28.1697 27.6663 28.7499 28.2113C29.3301 28.7563 30.117 29.0625 30.9375 29.0625H68.0625C68.883 29.0625 69.6699 28.7563 70.2501 28.2113C70.8303 27.6663 71.1562 26.927 71.1562 26.1562C71.1562 25.3855 70.8303 24.6462 70.2501 24.1012C69.6699 23.5562 68.883 23.25 68.0625 23.25H30.9375ZM27.8438 37.7812C27.8438 37.0105 28.1697 36.2712 28.7499 35.7262C29.3301 35.1812 30.117 34.875 30.9375 34.875H68.0625C68.883 34.875 69.6699 35.1812 70.2501 35.7262C70.8303 36.2712 71.1562 37.0105 71.1562 37.7812C71.1562 38.552 70.8303 39.2913 70.2501 39.8363C69.6699 40.3813 68.883 40.6875 68.0625 40.6875H30.9375C30.117 40.6875 29.3301 40.3813 28.7499 39.8363C28.1697 39.2913 27.8438 38.552 27.8438 37.7812ZM30.9375 46.5C30.117 46.5 29.3301 46.8062 28.7499 47.3512C28.1697 47.8962 27.8438 48.6355 27.8438 49.4062C27.8438 50.177 28.1697 50.9163 28.7499 51.4613C29.3301 52.0063 30.117 52.3125 30.9375 52.3125H68.0625C68.883 52.3125 69.6699 52.0063 70.2501 51.4613C70.8303 50.9163 71.1562 50.177 71.1562 49.4062C71.1562 48.6355 70.8303 47.8962 70.2501 47.3512C69.6699 46.8062 68.883 46.5 68.0625 46.5H30.9375ZM30.9375 58.125C30.117 58.125 29.3301 58.4312 28.7499 58.9762C28.1697 59.5212 27.8438 60.2605 27.8438 61.0312C27.8438 61.802 28.1697 62.5413 28.7499 63.0863C29.3301 63.6313 30.117 63.9375 30.9375 63.9375H49.5C50.3205 63.9375 51.1074 63.6313 51.6876 63.0863C52.2678 62.5413 52.5938 61.802 52.5938 61.0312C52.5938 60.2605 52.2678 59.5212 51.6876 58.9762C51.1074 58.4312 50.3205 58.125 49.5 58.125H30.9375Z" fill="url(#paint0_linear_0_1)"/>
<path id="Vector_2" d="M12.375 11.625C12.375 8.54186 13.6788 5.58499 15.9996 3.40488C18.3203 1.22477 21.4679 0 24.75 0L74.25 0C77.5321 0 80.6797 1.22477 83.0004 3.40488C85.3212 5.58499 86.625 8.54186 86.625 11.625V81.375C86.625 84.4581 85.3212 87.415 83.0004 89.5951C80.6797 91.7752 77.5321 93 74.25 93H24.75C21.4679 93 18.3203 91.7752 15.9996 89.5951C13.6788 87.415 12.375 84.4581 12.375 81.375V11.625ZM74.25 5.8125H24.75C23.109 5.8125 21.5352 6.42489 20.3748 7.51494C19.2144 8.605 18.5625 10.0834 18.5625 11.625V81.375C18.5625 82.9166 19.2144 84.395 20.3748 85.4851C21.5352 86.5751 23.109 87.1875 24.75 87.1875H74.25C75.891 87.1875 77.4648 86.5751 78.6252 85.4851C79.7856 84.395 80.4375 82.9166 80.4375 81.375V11.625C80.4375 10.0834 79.7856 8.605 78.6252 7.51494C77.4648 6.42489 75.891 5.8125 74.25 5.8125Z" fill="url(#paint1_linear_0_1)"/>
</g>
</g>
</g>
<defs>
<linearGradient id="paint0_linear_0_1" x1="49.5" y1="23.25" x2="49.5" y2="63.9375" gradientUnits="userSpaceOnUse">
<stop stop-color="#F7C76A"/>
<stop offset="1" stop-color="#8B6914"/>
</linearGradient>
<linearGradient id="paint1_linear_0_1" x1="49.5" y1="0" x2="49.5" y2="93" gradientUnits="userSpaceOnUse">
<stop stop-color="#F7C76A"/>
<stop offset="1" stop-color="#8B6914"/>
</linearGradient>
</defs>
</svg>
