<svg width="103" height="95" viewBox="0 0 103 95" fill="none" xmlns="http://www.w3.org/2000/svg">
<rect width="103" height="95" fill="#032644"/>
<g id="Section 1">
<path d="M-2793 -2419C-2793 -2420.1 -2792.1 -2421 -2791 -2421H390C391.104 -2421 392 -2420.1 392 -2419V5743C392 5744.1 391.104 5745 390 5745H-2791C-2792.1 5745 -2793 5744.1 -2793 5743V-2419Z" fill="white"/>
<path d="M-2791 -2421V-2420H390V-2421V-2422H-2791V-2421ZM392 -2419H391V5743H392H393V-2419H392ZM390 5745V5744H-2791V5745V5746H390V5745ZM-2793 5743H-2792V-2419H-2793H-2794V5743H-2793ZM-2791 5745V5744C-2791.55 5744 -2792 5743.55 -2792 5743H-2793H-2794C-2794 5744.66 -2792.66 5746 -2791 5746V5745ZM392 5743H391C391 5743.55 390.552 5744 390 5744V5745V5746C391.657 5746 393 5744.66 393 5743H392ZM390 -2421V-2420C390.552 -2420 391 -2419.55 391 -2419H392H393C393 -2420.66 391.657 -2422 390 -2422V-2421ZM-2791 -2421V-2422C-2792.66 -2422 -2794 -2420.66 -2794 -2419H-2793H-2792C-2792 -2419.55 -2791.55 -2420 -2791 -2420V-2421Z" fill="black" fill-opacity="0.1"/>
<g id="Arthur">
<rect width="1440" height="900" transform="translate(-1148 -289)" fill="#032644"/>
<g id="file-earmark-person-fill 1">
<path id="Vector" d="M59.8237 0H25.75C22.3353 0 19.0605 1.25111 16.646 3.47811C14.2315 5.7051 12.875 8.72555 12.875 11.875V83.125C12.875 86.2744 14.2315 89.2949 16.646 91.5219C19.0605 93.7489 22.3353 95 25.75 95H77.25C80.6647 95 83.9395 93.7489 86.354 91.5219C88.7685 89.2949 90.125 86.2744 90.125 83.125V27.9478C90.1246 26.3732 89.4462 24.8632 88.2388 23.75L64.375 1.73969C63.168 0.626113 61.5309 0.000336285 59.8237 0ZM61.1562 20.7812V8.90625L80.4688 26.7188H67.5938C65.8864 26.7188 64.249 26.0932 63.0418 24.9797C61.8345 23.8662 61.1562 22.356 61.1562 20.7812ZM70.8125 47.5C70.8125 52.2242 68.7778 56.7548 65.156 60.0953C61.5342 63.4358 56.622 65.3125 51.5 65.3125C46.378 65.3125 41.4658 63.4358 37.844 60.0953C34.2222 56.7548 32.1875 52.2242 32.1875 47.5C32.1875 42.7758 34.2222 38.2452 37.844 34.9047C41.4658 31.5642 46.378 29.6875 51.5 29.6875C56.622 29.6875 61.5342 31.5642 65.156 34.9047C68.7778 38.2452 70.8125 42.7758 70.8125 47.5ZM83.6875 81.6703V83.125C83.6875 84.6997 83.0093 86.2099 81.802 87.3234C80.5947 88.4369 78.9573 89.0625 77.25 89.0625H25.75C24.0427 89.0625 22.4053 88.4369 21.198 87.3234C19.9907 86.2099 19.3125 84.6997 19.3125 83.125V81.6703C19.3125 81.6703 25.75 71.25 51.5 71.25C77.25 71.25 83.6875 81.6703 83.6875 81.6703Z" fill="url(#paint0_linear_0_1)"/>
</g>
</g>
</g>
<defs>
<linearGradient id="paint0_linear_0_1" x1="51.5" y1="0" x2="51.5" y2="95" gradientUnits="userSpaceOnUse">
<stop stop-color="#F2C266"/>
<stop offset="1" stop-color="#8C703B"/>
</linearGradient>
</defs>
</svg>
