<svg width="100" height="99" viewBox="0 0 100 99" fill="none" xmlns="http://www.w3.org/2000/svg">
<rect width="100" height="99" fill="#032644"/>
<g id="Section 1">
<path d="M-1847 -2746C-1847 -2747.1 -1846.1 -2748 -1845 -2748H1336C1337.1 -2748 1338 -2747.1 1338 -2746V5416C1338 5417.1 1337.1 5418 1336 5418H-1845C-1846.1 5418 -1847 5417.1 -1847 5416V-2746Z" fill="white"/>
<path d="M-1845 -2748V-2747H1336V-2748V-2749H-1845V-2748ZM1338 -2746H1337V5416H1338H1339V-2746H1338ZM1336 5418V5417H-1845V5418V5419H1336V5418ZM-1847 5416H-1846V-2746H-1847H-1848V5416H-1847ZM-1845 5418V5417C-1845.55 5417 -1846 5416.55 -1846 5416H-1847H-1848C-1848 5417.66 -1846.66 5419 -1845 5419V5418ZM1338 5416H1337C1337 5416.55 1336.55 5417 1336 5417V5418V5419C1337.66 5419 1339 5417.66 1339 5416H1338ZM1336 -2748V-2747C1336.55 -2747 1337 -2746.55 1337 -2746H1338H1339C1339 -2747.66 1337.66 -2749 1336 -2749V-2748ZM-1845 -2748V-2749C-1846.66 -2749 -1848 -2747.66 -1848 -2746H-1847H-1846C-1846 -2746.55 -1845.55 -2747 -1845 -2747V-2748Z" fill="black" fill-opacity="0.1"/>
<g id="Arthur">
<rect width="1440" height="900" transform="translate(-202 -616)" fill="#032644"/>
<g id="briefcase-fill 1">
<path id="Vector" d="M40.625 6.1875C38.1386 6.1875 35.754 7.16534 33.9959 8.90592C32.2377 10.6465 31.25 13.0072 31.25 15.4688V18.5625H9.375C6.8886 18.5625 4.50403 19.5403 2.74587 21.2809C0.98772 23.0215 0 25.3822 0 27.8438L0 36.4073L47.5875 48.9679C49.1683 49.3846 50.8317 49.3846 52.4125 48.9679L100 36.4073V27.8438C100 25.3822 99.0123 23.0215 97.2541 21.2809C95.496 19.5403 93.1114 18.5625 90.625 18.5625H68.75V15.4688C68.75 13.0072 67.7623 10.6465 66.0041 8.90592C64.246 7.16534 61.8614 6.1875 59.375 6.1875H40.625ZM40.625 12.375H59.375C60.2038 12.375 60.9987 12.7009 61.5847 13.2811C62.1708 13.8613 62.5 14.6482 62.5 15.4688V18.5625H37.5V15.4688C37.5 14.6482 37.8292 13.8613 38.4153 13.2811C39.0013 12.7009 39.7962 12.375 40.625 12.375Z" fill="url(#paint0_linear_0_1)"/>
<path id="Vector_2" d="M0 77.3437C0 79.8052 0.98772 82.1659 2.74587 83.9065C4.50403 85.6471 6.8886 86.6249 9.375 86.6249H90.625C93.1114 86.6249 95.496 85.6471 97.2541 83.9065C99.0123 82.1659 100 79.8052 100 77.3437V42.3843L50.8062 55.3595C50.278 55.4991 49.722 55.4991 49.1937 55.3595L0 42.3843V77.3437Z" fill="url(#paint1_linear_0_1)"/>
</g>
</g>
</g>
<defs>
<linearGradient id="paint0_linear_0_1" x1="50" y1="12.5" x2="50" y2="85.5" gradientUnits="userSpaceOnUse">
<stop stop-color="#D8AD5B"/>
<stop offset="1" stop-color="#725B30"/>
</linearGradient>
<linearGradient id="paint1_linear_0_1" x1="0" y1="64.5046" x2="100" y2="64.5046" gradientUnits="userSpaceOnUse">
<stop stop-color="#F7C76A"/>
<stop offset="1" stop-color="#8B6914"/>
</linearGradient>
</defs>
</svg>
