<svg width="107" height="103" viewBox="0 0 107 103" fill="none" xmlns="http://www.w3.org/2000/svg">
<rect width="107" height="103" fill="#032644"/>
<g id="Section 1">
<path d="M-2106 -2746C-2106 -2747.1 -2105.1 -2748 -2104 -2748H1077C1078.1 -2748 1079 -2747.1 1079 -2746V5416C1079 5417.1 1078.1 5418 1077 5418H-2104C-2105.1 5418 -2106 5417.1 -2106 5416V-2746Z" fill="white"/>
<path d="M-2104 -2748V-2747H1077V-2748V-2749H-2104V-2748ZM1079 -2746H1078V5416H1079H1080V-2746H1079ZM1077 5418V5417H-2104V5418V5419H1077V5418ZM-2106 5416H-2105V-2746H-2106H-2107V5416H-2106ZM-2104 5418V5417C-2104.55 5417 -2105 5416.55 -2105 5416H-2106H-2107C-2107 5417.66 -2105.66 5419 -2104 5419V5418ZM1079 5416H1078C1078 5416.55 1077.55 5417 1077 5417V5418V5419C1078.66 5419 1080 5417.66 1080 5416H1079ZM1077 -2748V-2747C1077.55 -2747 1078 -2746.55 1078 -2746H1079H1080C1080 -2747.66 1078.66 -2749 1077 -2749V-2748ZM-2104 -2748V-2749C-2105.66 -2749 -2107 -2747.66 -2107 -2746H-2106H-2105C-2105 -2746.55 -2104.55 -2747 -2104 -2747V-2748Z" fill="black" fill-opacity="0.1"/>
<g id="Arthur">
<rect width="1440" height="900" transform="translate(-461 -616)" fill="#032644"/>
<g id="file-earmark-check-fill 1">
<path id="Vector" d="M62.1469 0H26.75C23.2027 0 19.8007 1.35647 17.2924 3.771C14.7841 6.18553 13.375 9.46034 13.375 12.875V90.125C13.375 93.5397 14.7841 96.8145 17.2924 99.229C19.8007 101.644 23.2027 103 26.75 103H80.25C83.7973 103 87.1992 101.644 89.7076 99.229C92.2159 96.8145 93.625 93.5397 93.625 90.125V30.3013C93.6246 28.5941 92.9198 26.957 91.6656 25.75L66.875 1.88619C65.6211 0.678839 63.9204 0.000364603 62.1469 0ZM63.5312 22.5312V9.65625L83.5938 28.9688H70.2188C68.4451 28.9688 66.7441 28.2905 65.49 27.0832C64.2358 25.876 63.5312 24.2386 63.5312 22.5312ZM72.5861 50.5601L52.5236 69.8726C52.213 70.1724 51.844 70.4102 51.4378 70.5725C51.0316 70.7347 50.5961 70.8183 50.1562 70.8183C49.7164 70.8183 49.2809 70.7347 48.8747 70.5725C48.4685 70.4102 48.0995 70.1724 47.7889 69.8726L37.7576 60.2164C37.4467 59.9171 37.2001 59.5618 37.0319 59.1708C36.8636 58.7798 36.777 58.3607 36.777 57.9375C36.777 57.5143 36.8636 57.0952 37.0319 56.7042C37.2001 56.3132 37.4467 55.9579 37.7576 55.6586C38.3855 55.0542 39.2371 54.7147 40.125 54.7147C40.5647 54.7147 41 54.798 41.4062 54.96C41.8124 55.122 42.1815 55.3594 42.4924 55.6586L50.1562 63.0424L67.8514 46.0024C68.4792 45.398 69.3308 45.0584 70.2188 45.0584C71.1067 45.0584 71.9583 45.398 72.5861 46.0024C73.214 46.6068 73.5667 47.4265 73.5667 48.2812C73.5667 49.136 73.214 49.9557 72.5861 50.5601Z" fill="url(#paint0_linear_0_1)"/>
</g>
</g>
</g>
<defs>
<linearGradient id="paint0_linear_0_1" x1="53.5" y1="0" x2="53" y2="118" gradientUnits="userSpaceOnUse">
<stop stop-color="#F7C76A"/>
<stop offset="1" stop-color="#8B6914"/>
</linearGradient>
</defs>
</svg>
