<svg width="111" height="107" viewBox="0 0 111 107" fill="none" xmlns="http://www.w3.org/2000/svg">
<rect width="111" height="107" fill="#032644"/>
<g id="Section 1">
<path d="M-2331 -2746C-2331 -2747.1 -2330.1 -2748 -2329 -2748H852C853.104 -2748 854 -2747.1 854 -2746V5416C854 5417.1 853.104 5418 852 5418H-2329C-2330.1 5418 -2331 5417.1 -2331 5416V-2746Z" fill="white"/>
<path d="M-2329 -2748V-2747H852V-2748V-2749H-2329V-2748ZM854 -2746H853V5416H854H855V-2746H854ZM852 5418V5417H-2329V5418V5419H852V5418ZM-2331 5416H-2330V-2746H-2331H-2332V5416H-2331ZM-2329 5418V5417C-2329.55 5417 -2330 5416.55 -2330 5416H-2331H-2332C-2332 5417.66 -2330.66 5419 -2329 5419V5418ZM854 5416H853C853 5416.55 852.552 5417 852 5417V5418V5419C853.657 5419 855 5417.66 855 5416H854ZM852 -2748V-2747C852.552 -2747 853 -2746.55 853 -2746H854H855C855 -2747.66 853.657 -2749 852 -2749V-2748ZM-2329 -2748V-2749C-2330.66 -2749 -2332 -2747.66 -2332 -2746H-2331H-2330C-2330 -2746.55 -2329.55 -2747 -2329 -2747V-2748Z" fill="black" fill-opacity="0.1"/>
<g id="Arthur">
<rect width="1440" height="900" transform="translate(-686 -616)" fill="#032644"/>
<g id="award-fill 1">
<path id="Vector" d="M66.8551 6.22559L66.9274 6.26074L67.0065 6.27246L79.6422 8.12109L85.3668 19.1299L85.4049 19.2031L85.4655 19.2607L94.5465 27.9043L92.4694 40.041L92.4557 40.125L92.4694 40.209L94.5465 52.3447L85.4655 60.9893L85.4049 61.0469L85.3668 61.1201L79.6422 72.1279L67.0065 73.9775L66.9274 73.9893L66.8551 74.0244L55.4996 79.6904L44.1442 74.0244L44.0729 73.9893L43.9938 73.9775L31.3571 72.1279L25.6334 61.1201L25.5953 61.0469L25.5348 60.9893L16.4528 52.3447L18.5299 40.209L18.5446 40.125L18.5299 40.041L16.4528 27.9043L25.5348 19.2607L25.5953 19.2031L25.6334 19.1299L31.3571 8.12109L43.9938 6.27246L44.0729 6.26074L44.1442 6.22559L55.4996 0.558594L66.8551 6.22559Z" fill="url(#paint0_linear_0_1)" stroke="black"/>
<path id="Vector_2" d="M82.75 106.365L55.6172 99.8264L55.5 99.7981L55.3828 99.8264L28.25 106.365V79.4504L41.5957 81.4006L55.2764 88.2278L55.5 88.3391L55.7236 88.2278L69.4033 81.4006L82.75 79.4504V106.365Z" fill="url(#paint1_linear_0_1)" stroke="black"/>
</g>
</g>
</g>
<defs>
<linearGradient id="paint0_linear_0_1" x1="55.5001" y1="-1.46993e-08" x2="56" y2="112.5" gradientUnits="userSpaceOnUse">
<stop stop-color="#F7C76A"/>
<stop offset="1" stop-color="#8B6914"/>
</linearGradient>
<linearGradient id="paint1_linear_0_1" x1="55.5" y1="78.8723" x2="55.5" y2="107" gradientUnits="userSpaceOnUse">
<stop stop-color="#F7C76A"/>
<stop offset="1" stop-color="#8B6914"/>
</linearGradient>
</defs>
</svg>
