<svg width="83" height="89" viewBox="0 0 83 89" fill="none" xmlns="http://www.w3.org/2000/svg">
<rect width="83" height="89" fill="#032644"/>
<g id="Section 1">
<path d="M-2568 -2746C-2568 -2747.1 -2567.1 -2748 -2566 -2748H615C616.104 -2748 617 -2747.1 617 -2746V5416C617 5417.1 616.104 5418 615 5418H-2566C-2567.1 5418 -2568 5417.1 -2568 5416V-2746Z" fill="white"/>
<path d="M-2566 -2748V-2747H615V-2748V-2749H-2566V-2748ZM617 -2746H616V5416H617H618V-2746H617ZM615 5418V5417H-2566V5418V5419H615V5418ZM-2568 5416H-2567V-2746H-2568H-2569V5416H-2568ZM-2566 5418V5417C-2566.55 5417 -2567 5416.55 -2567 5416H-2568H-2569C-2569 5417.66 -2567.66 5419 -2566 5419V5418ZM617 5416H616C616 5416.55 615.552 5417 615 5417V5418V5419C616.657 5419 618 5417.66 618 5416H617ZM615 -2748V-2747C615.552 -2747 616 -2746.55 616 -2746H617H618C618 -2747.66 616.657 -2749 615 -2749V-2748ZM-2566 -2748V-2749C-2567.66 -2749 -2569 -2747.66 -2569 -2746H-2568H-2567C-2567 -2746.55 -2566.55 -2747 -2566 -2747V-2748Z" fill="black" fill-opacity="0.1"/>
<g id="Arthur">
<rect width="1440" height="900" transform="translate(-923 -616)" fill="#032644"/>
<g id="file-earmark-bar-graph-fill 1">
<path id="Vector" d="M48.2074 0H20.75C17.9984 0 15.3595 1.1721 13.4138 3.25844C11.4681 5.34478 10.375 8.17447 10.375 11.125V77.875C10.375 80.8255 11.4681 83.6552 13.4138 85.7416C15.3595 87.8279 17.9984 89 20.75 89H62.25C65.0016 89 67.6405 87.8279 69.5862 85.7416C71.5319 83.6552 72.625 80.8255 72.625 77.875V26.1827C72.6247 24.7075 72.078 23.2929 71.1051 22.25L51.875 1.62981C50.9024 0.586569 49.5831 0.000315046 48.2074 0ZM49.2812 19.4688V8.34375L64.8438 25.0312H54.4688C53.0929 25.0312 51.7735 24.4452 50.8006 23.402C49.8278 22.3589 49.2812 20.944 49.2812 19.4688ZM51.875 75.0938V41.7188C51.875 40.9811 52.1483 40.2737 52.6347 39.7521C53.1211 39.2305 53.7808 38.9375 54.4688 38.9375H59.6562C60.3442 38.9375 61.0039 39.2305 61.4903 39.7521C61.9767 40.2737 62.25 40.9811 62.25 41.7188V75.0938C62.25 75.8314 61.9767 76.5388 61.4903 77.0604C61.0039 77.582 60.3442 77.875 59.6562 77.875H54.4688C53.7808 77.875 53.1211 77.582 52.6347 77.0604C52.1483 76.5388 51.875 75.8314 51.875 75.0938ZM38.9062 77.875C38.2183 77.875 37.5586 77.582 37.0722 77.0604C36.5858 76.5388 36.3125 75.8314 36.3125 75.0938V52.8438C36.3125 52.1061 36.5858 51.3987 37.0722 50.8771C37.5586 50.3555 38.2183 50.0625 38.9062 50.0625H44.0938C44.7817 50.0625 45.4414 50.3555 45.9278 50.8771C46.4142 51.3987 46.6875 52.1061 46.6875 52.8438V75.0938C46.6875 75.8314 46.4142 76.5388 45.9278 77.0604C45.4414 77.582 44.7817 77.875 44.0938 77.875H38.9062ZM23.3438 77.875C22.6558 77.875 21.9961 77.582 21.5097 77.0604C21.0233 76.5388 20.75 75.8314 20.75 75.0938V63.9688C20.75 63.2311 21.0233 62.5237 21.5097 62.0021C21.9961 61.4805 22.6558 61.1875 23.3438 61.1875H28.5312C29.2192 61.1875 29.8789 61.4805 30.3653 62.0021C30.8517 62.5237 31.125 63.2311 31.125 63.9688V75.0938C31.125 75.8314 30.8517 76.5388 30.3653 77.0604C29.8789 77.582 29.2192 77.875 28.5312 77.875H23.3438Z" fill="url(#paint0_linear_0_1)"/>
</g>
</g>
</g>
<defs>
<linearGradient id="paint0_linear_0_1" x1="41.5" y1="0" x2="41.5" y2="89" gradientUnits="userSpaceOnUse">
<stop stop-color="#F7C76A"/>
<stop offset="1" stop-color="#8B6914"/>
</linearGradient>
</defs>
</svg>
