<svg width="130" height="102" viewBox="0 0 130 102" fill="none" xmlns="http://www.w3.org/2000/svg">
<rect width="130" height="102" fill="#032644"/>
<g id="Section 1">
<path d="M-2786 -2746C-2786 -2747.1 -2785.1 -2748 -2784 -2748H397C398.104 -2748 399 -2747.1 399 -2746V5416C399 5417.1 398.104 5418 397 5418H-2784C-2785.1 5418 -2786 5417.1 -2786 5416V-2746Z" fill="white"/>
<path d="M-2784 -2748V-2747H397V-2748V-2749H-2784V-2748ZM399 -2746H398V5416H399H400V-2746H399ZM397 5418V5417H-2784V5418V5419H397V5418ZM-2786 5416H-2785V-2746H-2786H-2787V5416H-2786ZM-2784 5418V5417C-2784.55 5417 -2785 5416.55 -2785 5416H-2786H-2787C-2787 5417.66 -2785.66 5419 -2784 5419V5418ZM399 5416H398C398 5416.55 397.552 5417 397 5417V5418V5419C398.657 5419 400 5417.66 400 5416H399ZM397 -2748V-2747C397.552 -2747 398 -2746.55 398 -2746H399H400C400 -2747.66 398.657 -2749 397 -2749V-2748ZM-2784 -2748V-2749C-2785.66 -2749 -2787 -2747.66 -2787 -2746H-2786H-2785C-2785 -2746.55 -2784.55 -2747 -2784 -2747V-2748Z" fill="black" fill-opacity="0.1"/>
<g id="Arthur">
<rect width="1440" height="900" transform="translate(-1141 -616)" fill="#032644"/>
<g id="file-earmark-lock-fill 1">
<path id="Vector" d="M56.875 44.625C56.875 42.9342 57.731 41.3127 59.2548 40.1172C60.7785 38.9217 62.8451 38.25 65 38.25C67.1549 38.25 69.2215 38.9217 70.7452 40.1172C72.269 41.3127 73.125 42.9342 73.125 44.625V51H56.875V44.625ZM48.75 59.2875C48.75 59.0198 48.9125 58.6054 49.6031 58.1719C50.5307 57.6344 51.6597 57.3541 52.8125 57.375H77.1875C78.3403 57.3541 79.4693 57.6344 80.3969 58.1719C81.0875 58.6054 81.25 59.0198 81.25 59.2875V74.5875C81.25 74.8552 81.0875 75.2696 80.3969 75.7031C79.4693 76.2406 78.3403 76.5209 77.1875 76.5H52.8125C51.6597 76.5209 50.5307 76.2406 49.6031 75.7031C48.9125 75.2696 48.75 74.8552 48.75 74.5875V59.2875Z" fill="url(#paint0_linear_0_1)"/>
<path id="Vector_2" d="M75.5056 0H32.5C28.1902 0 24.057 1.3433 21.0095 3.73439C17.962 6.12548 16.25 9.36849 16.25 12.75V89.25C16.25 92.6315 17.962 95.8745 21.0095 98.2656C24.057 100.657 28.1902 102 32.5 102H97.5C101.81 102 105.943 100.657 108.99 98.2656C112.038 95.8745 113.75 92.6315 113.75 89.25V30.0071C113.75 28.3165 112.893 26.6953 111.369 25.5L81.25 1.86788C79.7266 0.672248 77.6603 0.000361063 75.5056 0ZM77.1875 22.3125V9.5625L101.562 28.6875H85.3125C83.1576 28.6875 81.091 28.0158 79.5673 26.8203C78.0435 25.6248 77.1875 24.0033 77.1875 22.3125ZM81.25 44.625V51.4845C85.6375 52.5428 89.375 55.2904 89.375 59.2875V74.5875C89.375 79.7895 83.0294 82.875 77.1875 82.875H52.8125C46.9706 82.875 40.625 79.7895 40.625 74.5875V59.2875C40.625 55.2904 44.3625 52.5428 48.75 51.4845V44.625C48.75 41.2435 50.462 38.0005 53.5095 35.6094C56.557 33.2183 60.6902 31.875 65 31.875C69.3098 31.875 73.443 33.2183 76.4905 35.6094C79.5379 38.0005 81.25 41.2435 81.25 44.625Z" fill="url(#paint1_linear_0_1)"/>
</g>
</g>
</g>
<defs>
<linearGradient id="paint0_linear_0_1" x1="65" y1="38.25" x2="65" y2="76.5011" gradientUnits="userSpaceOnUse">
<stop stop-color="#F7C76A"/>
<stop offset="1" stop-color="#8B6914"/>
</linearGradient>
<linearGradient id="paint1_linear_0_1" x1="65" y1="0" x2="65" y2="102" gradientUnits="userSpaceOnUse">
<stop stop-color="#F7C76A"/>
<stop offset="1" stop-color="#8B6914"/>
</linearGradient>
</defs>
</svg>
